<?xml version="1.0" standalone="no"?>
<!DOCTYPE svg PUBLIC "-//W3C//DTD SVG 20010904//EN"
 "http://www.w3.org/TR/2001/REC-SVG-20010904/DTD/svg10.dtd">
<svg version="1.0" xmlns="http://www.w3.org/2000/svg"
 width="1280.000000pt" height="733.000000pt" viewBox="0 0 1280.000000 733.000000"
 preserveAspectRatio="xMidYMid meet">
<metadata>
Created by potrace 1.15, written by Peter Selinger 2001-2017
</metadata>
<g transform="translate(0.000000,733.000000) scale(0.100000,-0.100000)"
fill="#000000" stroke="none">
<path d="M4035 6553 c-334 -30 -428 -46 -559 -92 -137 -49 -168 -65 -339 -179
-156 -103 -317 -286 -464 -527 -42 -68 -137 -263 -174 -355 -44 -111 -90 -200
-120 -235 -64 -73 -331 -287 -481 -386 -278 -183 -336 -221 -365 -236 -15 -8
-35 -20 -43 -27 -8 -7 -62 -33 -120 -59 -58 -26 -116 -54 -130 -61 -14 -8 -52
-30 -85 -48 -67 -37 -157 -124 -186 -180 -28 -55 -35 -118 -16 -155 20 -37 80
-91 121 -108 48 -20 232 -28 348 -15 97 10 143 18 424 69 151 28 311 66 376
91 53 19 91 30 348 96 216 56 333 73 435 63 113 -11 168 -33 229 -93 64 -63
80 -105 74 -197 -5 -58 -14 -85 -59 -175 -47 -93 -71 -124 -185 -248 -154
-167 -216 -224 -343 -313 -164 -117 -373 -337 -487 -514 -70 -109 -171 -317
-204 -420 -62 -195 -84 -347 -77 -544 7 -187 26 -257 132 -480 42 -88 88 -183
101 -212 14 -29 44 -78 68 -110 23 -32 58 -82 77 -111 44 -68 92 -92 207 -103
48 -5 146 -15 217 -24 230 -25 458 -36 1025 -45 517 -9 695 -7 1485 15 110 3
232 8 270 10 39 2 144 8 235 11 91 4 194 9 230 11 36 2 472 6 970 8 498 3
1004 9 1125 14 121 6 366 15 545 20 304 10 440 18 635 41 44 5 169 14 278 20
214 12 338 29 387 55 73 38 308 444 421 728 45 113 136 383 175 522 74 262
217 573 345 753 32 45 59 89 59 97 0 8 5 15 11 15 6 0 49 35 97 78 48 42 116
100 150 127 35 28 114 91 175 140 122 98 155 123 297 223 345 244 438 325 461
402 9 31 8 48 -6 94 -20 63 -48 86 -105 86 -32 0 -135 -27 -225 -60 -27 -10
-84 -28 -125 -40 -41 -12 -84 -26 -95 -31 -23 -10 -137 -43 -310 -89 -186 -49
-300 -80 -425 -116 -207 -60 -407 -104 -497 -110 -82 -6 -91 -4 -123 18 -30
21 -35 30 -38 71 -5 81 51 209 194 442 133 217 145 309 49 393 l-35 32 -53
-21 c-28 -11 -76 -37 -105 -57 -67 -47 -78 -53 -192 -101 -111 -46 -192 -71
-232 -71 -15 0 -110 -20 -210 -45 -100 -25 -195 -45 -210 -45 -15 0 -63 -6
-105 -14 -43 -8 -116 -22 -163 -30 -47 -9 -114 -28 -150 -42 -36 -15 -105 -33
-155 -41 -49 -7 -128 -21 -173 -29 -46 -8 -152 -17 -235 -19 -84 -3 -183 -9
-222 -15 -38 -5 -117 -14 -175 -20 -58 -6 -125 -15 -150 -20 -25 -4 -112 -18
-195 -30 -197 -28 -284 -43 -435 -75 -135 -28 -468 -115 -559 -146 -31 -11
-90 -29 -131 -40 -153 -40 -733 -224 -784 -249 -23 -10 -95 -40 -161 -66 -66
-26 -167 -72 -225 -101 -58 -29 -115 -53 -127 -53 -28 0 -75 20 -90 40 -32 40
-25 185 16 315 23 70 124 322 154 380 20 39 67 168 129 350 17 50 46 129 65
177 37 96 55 179 73 338 13 116 -1 269 -42 465 -24 118 -114 351 -187 484 -82
151 -210 307 -308 376 -318 224 -400 265 -645 320 -142 33 -279 47 -373 38z"/>
</g>
</svg>
